<?xml version="1.0" encoding="utf-8"?>
<svg xmlns="http://www.w3.org/2000/svg" version="1.1" width="500" height="500">
<line x1="250.000" y1="250.000" x2="260.000" y2="250.000" stroke="red" />
<line x1="260.000" y1="250.000" x2="265.000" y2="241.340" stroke="red" />
<line x1="265.000" y1="241.340" x2="270.000" y2="250.000" stroke="red" />
<line x1="270.000" y1="250.000" x2="280.000" y2="250.000" stroke="red" />
<line x1="280.000" y1="250.000" x2="285.000" y2="241.340" stroke="red" />
<line x1="285.000" y1="241.340" x2="280.000" y2="232.679" stroke="red" />
<line x1="280.000" y1="232.679" x2="290.000" y2="232.679" stroke="red" />
<line x1="290.000" y1="232.679" x2="295.000" y2="224.019" stroke="red" />
<line x1="295.000" y1="224.019" x2="300.000" y2="232.679" stroke="red" />
<line x1="300.000" y1="232.679" x2="310.000" y2="232.679" stroke="red" />
<line x1="310.000" y1="232.679" x2="305.000" y2="241.340" stroke="red" />
<line x1="305.000" y1="241.340" x2="310.000" y2="250.000" stroke="red" />
<line x1="310.000" y1="250.000" x2="320.000" y2="250.000" stroke="red" />
<line x1="320.000" y1="250.000" x2="325.000" y2="241.340" stroke="red" />
<line x1="325.000" y1="241.340" x2="330.000" y2="250.000" stroke="red" />
<line x1="330.000" y1="250.000" x2="340.000" y2="250.000" stroke="red" />
<line x1="340.000" y1="250.000" x2="345.000" y2="241.340" stroke="red" />
<line x1="345.000" y1="241.340" x2="340.000" y2="232.679" stroke="red" />
<line x1="340.000" y1="232.679" x2="350.000" y2="232.679" stroke="red" />
<line x1="350.000" y1="232.679" x2="355.000" y2="224.019" stroke="red" />
<line x1="355.000" y1="224.019" x2="350.000" y2="215.359" stroke="red" />
<line x1="350.000" y1="215.359" x2="340.000" y2="215.359" stroke="red" />
<line x1="340.000" y1="215.359" x2="345.000" y2="206.699" stroke="red" />
<line x1="345.000" y1="206.699" x2="340.000" y2="198.038" stroke="red" />
<line x1="340.000" y1="198.038" x2="350.000" y2="198.038" stroke="red" />
<line x1="350.000" y1="198.038" x2="355.000" y2="189.378" stroke="red" />
<line x1="355.000" y1="189.378" x2="360.000" y2="198.038" stroke="red" />
<line x1="360.000" y1="198.038" x2="370.000" y2="198.038" stroke="red" />
<line x1="370.000" y1="198.038" x2="375.000" y2="189.378" stroke="red" />
<line x1="375.000" y1="189.378" x2="370.000" y2="180.718" stroke="red" />
<line x1="370.000" y1="180.718" x2="380.000" y2="180.718" stroke="red" />
<line x1="380.000" y1="180.718" x2="385.000" y2="172.058" stroke="red" />
<line x1="385.000" y1="172.058" x2="390.000" y2="180.718" stroke="red" />
<line x1="390.000" y1="180.718" x2="400.000" y2="180.718" stroke="red" />
<line x1="400.000" y1="180.718" x2="395.000" y2="189.378" stroke="red" />
<line x1="395.000" y1="189.378" x2="400.000" y2="198.038" stroke="red" />
<line x1="400.000" y1="198.038" x2="410.000" y2="198.038" stroke="red" />
<line x1="410.000" y1="198.038" x2="415.000" y2="189.378" stroke="red" />
<line x1="415.000" y1="189.378" x2="420.000" y2="198.038" stroke="red" />
<line x1="420.000" y1="198.038" x2="430.000" y2="198.038" stroke="red" />
<line x1="430.000" y1="198.038" x2="425.000" y2="206.699" stroke="red" />
<line x1="425.000" y1="206.699" x2="430.000" y2="215.359" stroke="red" />
<line x1="430.000" y1="215.359" x2="420.000" y2="215.359" stroke="red" />
<line x1="420.000" y1="215.359" x2="415.000" y2="224.019" stroke="red" />
<line x1="415.000" y1="224.019" x2="420.000" y2="232.679" stroke="red" />
<line x1="420.000" y1="232.679" x2="430.000" y2="232.679" stroke="red" />
<line x1="430.000" y1="232.679" x2="425.000" y2="241.340" stroke="red" />
<line x1="425.000" y1="241.340" x2="430.000" y2="250.000" stroke="red" />
<line x1="430.000" y1="250.000" x2="440.000" y2="250.000" stroke="red" />
<line x1="440.000" y1="250.000" x2="445.000" y2="241.340" stroke="red" />
<line x1="445.000" y1="241.340" x2="450.000" y2="250.000" stroke="red" />
<line x1="450.000" y1="250.000" x2="460.000" y2="250.000" stroke="red" />
<line x1="460.000" y1="250.000" x2="465.000" y2="241.340" stroke="red" />
<line x1="465.000" y1="241.340" x2="460.000" y2="232.679" stroke="red" />
<line x1="460.000" y1="232.679" x2="470.000" y2="232.679" stroke="red" />
<line x1="470.000" y1="232.679" x2="475.000" y2="224.019" stroke="red" />
<line x1="475.000" y1="224.019" x2="480.000" y2="232.679" stroke="red" />
<line x1="480.000" y1="232.679" x2="490.000" y2="232.679" stroke="red" />
<line x1="490.000" y1="232.679" x2="485.000" y2="241.340" stroke="red" />
<line x1="485.000" y1="241.340" x2="490.000" y2="250.000" stroke="red" />
<line x1="490.000" y1="250.000" x2="500.000" y2="250.000" stroke="red" />
<line x1="500.000" y1="250.000" x2="505.000" y2="241.340" stroke="red" />
<line x1="505.000" y1="241.340" x2="510.000" y2="250.000" stroke="red" />
<line x1="510.000" y1="250.000" x2="520.000" y2="250.000" stroke="red" />
</svg>